<!DOCTYPE svg PUBLIC "-//W3C//DTD SVG 1.1//EN" "http://www.w3.org/Graphics/SVG/1.1/DTD/svg11.dtd">
<!-- Uploaded to: SVG Repo, www.svgrepo.com, Transformed by: SVG Repo Mixer Tools -->
<svg fill="#000000" height="155px" width="155px" version="1.1" id="Layer_1" xmlns="http://www.w3.org/2000/svg" xmlns:xlink="http://www.w3.org/1999/xlink" viewBox="0 0 462.994 462.994" xml:space="preserve">
<g id="SVGRepo_bgCarrier" stroke-width="0"/>
<g id="SVGRepo_tracerCarrier" stroke-linecap="round" stroke-linejoin="round"/>
<g id="SVGRepo_iconCarrier"> <g> <g> <g> <path d="M375.497,15.994H263.498c-0.24,0-0.477,0.014-0.711,0.036C256.298,7.275,246.5,1.241,235.351,0.178 c-11.119-1.055-22.206,2.615-30.42,10.083c-1.925,1.75-3.65,3.681-5.175,5.746c-0.086-0.003-0.17-0.013-0.257-0.013H87.497 c-21.78,0-39.5,17.72-39.5,39.5v368c0,21.78,17.72,39.5,39.5,39.5h288c21.78,0,39.5-17.72,39.5-39.5v-368 C414.997,33.714,397.277,15.994,375.497,15.994z M206.996,55.494v-16c0.001-6.888,2.926-13.498,8.026-18.134 c5.168-4.699,11.877-6.922,18.905-6.249c12.375,1.18,22.069,12.494,22.069,25.758v14.625c0,4.142,3.357,7.5,7.5,7.5h32 c4.687,0,8.5,3.813,8.5,8.5v16c0,4.687-3.813,8.5-8.5,8.5h-128c-4.687,0-8.5-3.813-8.5-8.5v-16c0-4.687,3.813-8.5,8.5-8.5h32 C203.639,62.994,206.996,59.636,206.996,55.494z M167.497,110.994h128c12.958,0,23.5-10.542,23.5-23.5v-0.5h49v329h-273v-329h49 v0.5C143.997,100.452,154.539,110.994,167.497,110.994z M399.997,423.494c0,13.509-10.99,24.5-24.5,24.5h-288 c-13.51,0-24.5-10.991-24.5-24.5v-368c0-13.509,10.99-24.5,24.5-24.5h105.437c-0.613,2.772-0.937,5.62-0.937,8.5v8.5h-24.5 c-12.958,0-23.5,10.542-23.5,23.5v0.5h-56.5c-4.143,0-7.5,3.358-7.5,7.5v344c0,4.142,3.357,7.5,7.5,7.5h288 c4.143,0,7.5-3.358,7.5-7.5v-344c0-4.142-3.357-7.5-7.5-7.5h-56.5v-0.5c0-12.958-10.542-23.5-23.5-23.5h-24.5v-7.125 c0-3.391-0.418-6.699-1.193-9.875h105.693c13.51,0,24.5,10.991,24.5,24.5V423.494z"/> <path d="M231.497,62.994c4.143,0,7.5-3.358,7.5-7.5v-16c0-4.142-3.357-7.5-7.5-7.5s-7.5,3.358-7.5,7.5v16 C223.997,59.636,227.354,62.994,231.497,62.994z"/> <path d="M111.997,135.494v96c0,4.142,3.357,7.5,7.5,7.5h96c4.143,0,7.5-3.358,7.5-7.5v-96c0-4.142-3.357-7.5-7.5-7.5h-96 C115.354,127.994,111.997,131.352,111.997,135.494z M144.175,223.994c3.176-9.851,12.428-17,23.322-17s20.146,7.149,23.321,17 H144.175z M158.997,183.494v-8c0-4.687,3.813-8.5,8.5-8.5s8.5,3.813,8.5,8.5v8c0,4.687-3.813,8.5-8.5,8.5 S158.997,188.181,158.997,183.494z M126.997,142.994h81v81h-1.723c-2.24-11.6-9.567-21.404-19.563-26.995 c2.696-3.824,4.286-8.481,4.286-13.505v-8c0-12.958-10.542-23.5-23.5-23.5s-23.5,10.542-23.5,23.5v8 c0,5.024,1.59,9.681,4.286,13.505c-9.996,5.59-17.323,15.394-19.563,26.995h-1.723V142.994z"/> <path d="M247.497,142.994h96c4.143,0,7.5-3.358,7.5-7.5c0-4.142-3.357-7.5-7.5-7.5h-96c-4.143,0-7.5,3.358-7.5,7.5 C239.997,139.636,243.354,142.994,247.497,142.994z"/> <path d="M343.497,271.994h-176c-4.143,0-7.5,3.358-7.5,7.5c0,4.142,3.357,7.5,7.5,7.5h176c4.143,0,7.5-3.358,7.5-7.5 C350.997,275.352,347.64,271.994,343.497,271.994z"/> <path d="M343.497,303.994h-176c-4.143,0-7.5,3.358-7.5,7.5c0,4.142,3.357,7.5,7.5,7.5h176c4.143,0,7.5-3.358,7.5-7.5 C350.997,307.352,347.64,303.994,343.497,303.994z"/> <path d="M343.497,335.994h-144c-4.143,0-7.5,3.358-7.5,7.5c0,4.142,3.357,7.5,7.5,7.5h144c4.143,0,7.5-3.358,7.5-7.5 C350.997,339.352,347.64,335.994,343.497,335.994z"/> <path d="M343.497,367.994h-144c-4.143,0-7.5,3.358-7.5,7.5c0,4.142,3.357,7.5,7.5,7.5h144c4.143,0,7.5-3.358,7.5-7.5 C350.997,371.352,347.64,367.994,343.497,367.994z"/> <path d="M135.497,271.994h-16c-4.143,0-7.5,3.358-7.5,7.5c0,4.142,3.357,7.5,7.5,7.5h16c4.143,0,7.5-3.358,7.5-7.5 C142.997,275.352,139.64,271.994,135.497,271.994z"/> <path d="M135.497,303.994h-16c-4.143,0-7.5,3.358-7.5,7.5c0,4.142,3.357,7.5,7.5,7.5h16c4.143,0,7.5-3.358,7.5-7.5 C142.997,307.352,139.64,303.994,135.497,303.994z"/> <path d="M247.497,206.994h96c4.143,0,7.5-3.358,7.5-7.5c0-4.142-3.357-7.5-7.5-7.5h-96c-4.143,0-7.5,3.358-7.5,7.5 C239.997,203.636,243.354,206.994,247.497,206.994z"/> <path d="M247.497,238.994h96c4.143,0,7.5-3.358,7.5-7.5c0-4.142-3.357-7.5-7.5-7.5h-96c-4.143,0-7.5,3.358-7.5,7.5 C239.997,235.636,243.354,238.994,247.497,238.994z"/> <path d="M247.497,174.994h96c4.143,0,7.5-3.358,7.5-7.5c0-4.142-3.357-7.5-7.5-7.5h-96c-4.143,0-7.5,3.358-7.5,7.5 C239.997,171.636,243.354,174.994,247.497,174.994z"/> </g> </g> </g> </g>
</svg>